<?xml version="1.0" encoding="UTF-8"?>
<svg version="1.1" viewBox="0 0 2000 2000" width="1280" height="1280" xmlns="http://www.w3.org/2000/svg">
<path transform="translate(1192,470)" d="m0 0 6 1 4 5 5 9 7 4-5-10-2-3v-3l7 1 9 3 3 6v2l7 2-3-7v-3l5 1 5 3 3 7h4l2-5 46 1 1-5h4l3 8 3 6 9 6 2 1h6l1-1 1-9 2-2 4 1 1 5 1 8 4 3 2-5 7 1 5 1 1-5 4-1 5 1 2-2h5l3 2 10 2 3 4 2 13h3l1-9 3-9 1-1 7 1 11 6-4-11 1-5 3-2 5 1 1 12 6 1 5 4 3 5 2 1-4-12-5-7-1-4 1-3 4 1 7 3-2-9 11 2 7-1 5 4 3 1v-6h3l5 2 7 1 6 5 6-1 2 4 3-1 1-7 7 1 13 2 1 5-1 5h6l6-11 3-2h7l2 2-1 6-2 10 5 1 5-5 2-4v-17l4-1 5 4 5 9 1 14v5l10-2-1-7v-10l5 1 3 10 3 2h3l-6-8-1-5 2-3 6 1 9 11 7 9 7 4-6-9-9-13-3-4 1-4 1-1 7 1 11 9 2 3-1 4-2 4 4 4 6 2 4-1-5-9-2-9 1-5h7l4 2v2h4l1-2 7 1 10 7 4 5 6 16h2l-4-19-3-5-4-4 1-3 4 1 1 6 5-1 7 3 8 4 6-1 4-8 2-1 7 1 2-7 4 1 3 8 5 12 5 1 3-4 4 1 2 4 2 1-2-14v-5l3-1 5 5 6 9 9 4 5 4 3 5 5 1v-16l4-2 4 2 5 5v2l2-1 2-6 6-2v-2l-10-6-1-4 5-1 6 2 4 6 3 10 6 5h1l-1-5v-18l3-1 5 2 2 12 6 2v-11l1-2h7l3 3 2 8h10l1-6 5-1 7 1 3 4 2 8h5l1-5-2-6v-5l7 1 2 4 7 3-2 3h-2l4 7 4 8 4 1 1-8 1-1 11-1 1 5-3 7 7-2 7-7 6-1 3 2 1 7h6l7-14 3-1-1 16 10-1 3-5-1-11 5 1 8 4 2 4-1 11-5-3-6-5 4 6 11 8 5 6 5 4 3 7 3 1 2 7 2 1-1-8 4-1-1 9-6 8 1 6 6 4-1 3-5 1-4-1 2 7 3 3-1 4-1 5h7l1 3-3 9-3 4v7l6 2 1 1v22l6 3 1 4v17l-2 1-5-3 1 15-2 17 2 5v3l-2 1h-6l2 8 3 4v22l-7 1-3 4 2 5 4 4v7l-4 2 2 2v11l1 8-5-1-7-8v-2h-2l-1-2v-26l2-1-2-1v-195h-32l-104 1-35 1h-43l-27 2h-14l-23-2-3-3-1 3h-13l-21-1-18-2-50 1-14 2h-50l-24-1-49-1h-26l-75 2-101 1-21 3h-7l-9-2-32-3-4-1h-12l-10 1h-36l-40 2h-26l-70-1-14 4h-42l-21-4-13-2-15-1h-74l-19 1-5 3h-31l-19-1-5-2h-9l-14 2-18 1-5 1h-12l-9-2-5-3-13-3h-8l-4 1-27 1-17 2h-31l-2 1-10-1-7-1-15 1-12-1-11 1-2 2h-29l-4-1h-13l-6 1h-12l-7-5-9-1-2 4-2 1h-29l-16-2-41 1-4 1-30 1-10 2-13 1h-42l-4-1v-2l-3-1h3v-2l-58 2h-18l-11-1v2l-5 2-8 1h-12l-13-3-12-2h-21l-25 3-3 9-4 1-7-6 2 6 3 4v2l4 2 1 1v6l-4 4-4-1 4 11 4 7 1 8-3 3h-4l4 12 2 14v18l-3 5-3 2 5 5 1 9-1 3h-7l-6-2-2-18-6-7 1-11 5-8-1-10v-13l-2-12-1-16-4-18-1-1v-29l5-2 7 1 1 5 1 8h6v-10l-2-7-2-21 12-6 5 3 5-2 3-2h5l6 2 6-1 2-6 4-2h7l6 4 2-2 5 1 3 2h5l4-4 6 1 15 4 10 2v-2l-6-1-3-3v-2l8 1 4 3h10l4 1h8l7-1 8 1 2-1h16l8 3 8 6 4-2 4 1 4 2h8l-1-3-3-2v-3l19 2 9 2 4 2v-6l3-1 4 3 1 8 4 1v-6l4-1 9 4 18 4 1-4 9 1v-6l2-2 5 8 13 3h7l7-3 20-2 3-8 4-1 4 3v2h4l1-3 7-1 7 2 2-4 7-2 5-2 2-2h8l3 3-1 4h7l7 1 2-3 5-1 10 2 10 3v-3l-3-3v-3l9-1 1-1h6l8 7 6 3-3-6-3-3v-3h5l4 3h5l4-1 8 4 4 4 3 1v-2l6-1 8-1 6-1 5 3 14 1h12l10 3h3l2-4h7l16 3 7 4 8 2 7-3h6l2-4h16l5 1 2-1h6l5 10h1l-1-5 2-3h8l7-1 3 3v6l10-1 2-5 7-1 6 2 1-6 6-1 9 7h17l3 1 7 1 3 2 3-3 7 1 5 2-2-4-5-4-1-3 1-1h8l13 6 6 2 13 1-4-4-10-4-2-3 2-2h7l10 4 3-2h9l1 2-3 4 2 5 4 1 2-5h6l5 4 2 4 2-4 2-7 2-2h4l1 11 6 2h2l1-5 4-3 3 1v2h6l2-2 7-1 5-6 2-1h7l5 3 2 2h3l3-5h11l6 4 5 5h5l3-3h2l4 7 2 1v2l7 2-1-10-1-6 3-1 6 3 2-4 5 1-1 11 8-2h8l5-6 6-1 4-6h6l7 7 1-7 5-1 6 4 1-3h5l2 4v4l8-1 4 1 2 3 2-3 8 1 8 4h3l2-7h15l13 3 7 6 1-6-1-6 1-1h6l10 4 9 9h2l-3-9v-4h11l9 3 6 1v-6l1-1h5l11 7 5 5 3 9 3 1v-8l6-4 1-6h4l7 7v2h-2l2 5 7 1h3l-2-7-5-7-4-8zm675 19m-1618 5m-80 2 2 2h5l-1-2zm1464 4 1 8 2 4h2l-2-11zm-1376 8v2l4 1v-2zm1465 0-2 1 1 6 4 4h5l1-2-3-5zm-1707 53v7l2-4 1-3zm1 7 1 2z" fill="#CE101E"/>
<path transform="translate(693,575)" d="m0 0 10 2h20l10 1 60 1 39 2 4 4 5 16 4 12 5 8 5 17 2 19 1 6 1 67v50l-3 5-10 8-11 7-17 13-15 8-5 2 3 12 13 41 15 47 12 36 10 35 12 44 1 8-3 2-9 1-36 1h-36l-10-1-3-8-8-29-21-64-11-31-12-36-11-27-5-15-4-13-1-1v213l-1 1-22 2-56 3h-6l-3-2-1-3-1-26-1-9-1-94-1-24v-28l2-60v-23l-1-24v-31l2-5-2-16-3-8-4-31 1-13 5-50 3-21h86zm26 95-26 1-2 1-1 5v67l1 10 1 2h11l2-1 50-1 7-3 2-7v-73l-11-1z" fill="#CE101E"/>
<path transform="translate(1980,1404)" d="m0 0 5 1v3l4 2 1 5-6 3-2 2 1 6 5 5 3 5-3 2h-5l2 9-6 1 6 11 2 5-2 4 1 7-15 4v3l14 9 2 2-1 4-5 6h-2l-2 4-5 5-9-1-13-6 2 9-5 3-10 2-7-2-2-3-1-8-12-1-2 7-9 8-7 1-3-2v-16h-4l-2 6-7 11-4-2-4-11-7 1-2 4-9 17-4 2-1-1 1-7 4-8-1-4-6-1-2 4-1 11-2 4-7-2h-5l-3 3-4 1-2-1v-6l-4-7-1-8h-2l-6 9-6 5-5-2-1-5 1-3-12 1-4-4 2-7-7-3h-6l7 4 1 5-1 2h-9l-5-3v-5l2-2-6-1-5 1v4l5 2 2 3v3h-12l-13 5-11-1-6 2-28 3-4 1h-8l-2-5-15 1-7 2h-8l-4-3h-10l-2-1h-15l-6-9-3-1v8l-4 4h-11l-5 3-12 2-8 4h-6l-2-6-12 8h-6l-6 4h-3l-2-3v-3l-6 2-7-6-6-3-5 2-4 3h-6l-10-3-5-5-3-1-2 4-4 3h-7l-6-1-3 3h-10l-7 3-8 2-4 2-5-1-2-5-6 2-5 1-3-2h-10l-3-2v-3h-8l-9-4-4-2 2 5v5l-5 1-4-5-2-5-4-1 2 7v5l-2 2h-6l-12-7-13 1-11-1-7-4h-4v6l10 3v2h-16l-10-5-17-9-6-1 4 14-2 5-6 1-9-6-4-1-2 4-4 5-2 1h-10l-5-4-1-2-3 1-2 2-4-5-1-3-7 1-5 1-5-1-13-6-5 1-3 1-9-3-6-1-2 2-4-1h-3l-3 5-9-1-8-5-2 4-9 8-7-2-3-3h-3l-2 3-7 1-5-2-11 1-4-4-1-3-5 1-6-5-4 1-2 3-9 1-3 2-6 1-9-2-5-2h-8l-4 1-5-1-1-5h-3v2l-4-2-3-6-4-3 1 14-3 1-5-2h-16l-2 5-8 3-5 2-6-3-4-1-4 4-6-3-1-3-4-1-5 4-16 4h-6l-4-2-2 2h-7l-5-4h-7l-2-4-4 3-5-1-2-5h-2l-4 6-2 2-4-1-1-10-3-1-5 2-5-2-3 5-6 1h-8v2l-8 1-5-2-4-3-2-4-2 3h-7l-5-2-9 1-4 1-6 1-4-2-4-4v6l-19-2-9-2-3-5-3-1 1 2v15l-3 2-5-1-5-15-3-1-1 11-3 3-5-3-3 5h-11l-7 3-14 1-6-8-4 2-4 1-13 1-8-4-2-5-8 5-4-1v-6l-3 1-4 7-6 1-2-3 1-6h-2l-1 7-3 2h-7l-4 2h-9l-3-3 1-9 1-6-7 1-10 10-7-3-7 1-2 1h-7l-1-1h-5l-3 2-12 2-3-2v-5h-6l-3 1-2 4h-5l-3-5v-2h-2l-1 5-3 3-8-1-7 1v-2l-7-1-7 3-7 1-4-4h-11l-4-1-2 1h-8l-7-3-2-5-5 2-16 1-2 5h-4l1-6-5 2-14 1v-2l-7-1-4 3-7-1-3-2-1 2-6-2-13 1-7-1-4 3h-9l-3-3v-2l-4 2-2 3-6 1-7-3 1-6 3-5 2-1-8-2h-10l-3 14-9 4-8 5-5 1v-4l1-3-1-2-10-3-13-1-2 1h-8l-5-2-3-6-2-1-2 16-3 5h-19v-5l1-3-3 5-3 1-5-5 2-6 5-11-5 3-5 4-8-1-6-3-10 3-17-1-7 1 4 4-3 5-5 3-9-2-13-1-9 3-4 2h-13l-1-5 5-5-9-1 1 3v7l-5 1-3-1-2-5 1-6 4-4 6 1 2-6 3-4-1-2-8 4-4 4h-2v2l-6 2-4 8-2 1h-7l-2-4-4 1-2 3-10-1 1-6 4-7-9-2-5 10-5 3-7-1 1-5 6-9 3-2-7-1-1-5 1-6-1-6 2-15 2-2 7 1 7 2h8l1 3v6l4-1 1-2 5 1 2 1h45l5 1h96l8-1 31 4h46l2-2h5v2l20-1h11v-2l2-1 2-4h28l23 2 15 3h10l4 1h7l4-1 11 1 13-1 19-1 18 2h14l8 1 2-3 204 1h45l71-2 9-1 49-2h86l37 1h18l17-1h19l32 1 10 2 37 1h14l15 2 1 1 36 2 16 2 54 1h15l2-1 25 1 16 2h21l13-1h18l9 1 16-1 19-2 3-1h79l34-1 75-6h13l15 2 5 2h43l23-1h185l14-2 16-3h32l-1-15 3-6v-4l-10-5-1-3 6-9 4-8 9-5 1-3-12-1v-2l20-2zm-1957 65-2 4 5 1-2-5zm0 24v3l5-2v-1zm123 6v2h2v-2zm1828 1v2h3v-2zm3 2m-1938 1v3l6 1 1-2-4-2zm158 5 1 2z" fill="#CD101E"/>
<path transform="translate(199,576)" d="m0 0h9l20 2h10l9-1 5 1 18 1 9 2 6 3 3 4 8 34 6 16 7 27 4 21 2 18v13l-3 3-15 3-36 2-36 1-2-1-4-28-2-22-3-11h-12l-20 3h-31l-5 2-3 4-1 3v28l1 25 1 11 11 3 17 5 19 8 20 8 20 9 15 6 28 12 14 8 15 6 8 6 2 6v31l-1 2v6l1 2v28l-1 6v18l2 13v70l-4 7-10 11-5 6-15 11-9 11-7 8-3 2-21 1h-12l-5-1h-13l-9 1h-108l-9-2-4-6-8-24-5-22-7-29-5-25-5-27v-4l39-1 38-2 16-1 6 36 2 18 40-3h18l10 1 3-3 3-9 1-7v-56l-2-5-6-4-20-7-19-9-31-13-25-11-20-8-34-16-9-7-2-3-3-27v-132l2-11 4-8 8-10 9-10 7-10 6-8 5-5 3-1 42-2z" fill="#CE101E"/>
<path transform="translate(1603,575)" d="m0 0h22l14 1 2 2v117l-1 28-2 9-13 2-46 3h-15l-2-6-5-52-1-4-2-1h-77l1 16 2 106 3 44 2 7 2 3v10l-3 13-1 93 19-1 2-1h35l25-1v-78l1-17 3-3 41-1h32l3 2 1 9v99l-1 34-3 10-11 18-10 13-4 4-10 1-61 1h-25l-22-1-3 1h-10l-14-2-23-1-6-3-7-6-7-8-12-14-12-13-3-7-1-7 1-64v-92l-3-139v-39l2-20 6-10 13-18 12-17 10-13 4-4 100-2z" fill="#CE101E"/>
<path transform="translate(509,574)" d="m0 0h20l35 1 2 5 2 17 2 11 1 8v21l-2 7-1 1-2 22-4 1h-107l-24 1v48l1 37h15l14-1h86l2 7v72l-2 1-87 2-29 1 1 59v54l-1 11 13-2 28-2 61-2h38l4 4 2 10 1 11v30l-1 24-1 8-6 4-47 3-30 1-31 3-39 1-14-1-5-1-26-1-11 2-12-1-7-2-1-2-1-10v-38l-2-23-2-62v-84l-1-120v-131l1-1 8-1 93-2z" fill="#CE101E"/>
<path transform="translate(889,576)" d="m0 0h67l16 1 3 12 7 37 10 52 8 44 12 73 6 35 1 1 6-34 7-37 10-76 12-76 5-29 1-1h87l3 2 1 6-3 21-11 59-8 39-9 45-9 46-7 41-5 28-7 37-6 39-5 22-5 21-5 35-6 27-2 3-26 1h-48l-8-1-3-7-11-49-10-49-14-67-14-71-9-41-8-36-11-49-14-64-6-33-1-6h7z" fill="#CE101E"/>
<path transform="translate(1697,574)" d="m0 0h30l5 2 2 2 20 1h2l1-3h48l25 1 13 1 11-1h48l11 3 3 4 2 13 1 39v25l-2-1-36-1-7-1-1 1h-104l2 15 4 17v9l-2 9-2 5 1 22 2 22 89 1 12 1 2 2 1 19v55l-8 2-14 2h-21l-12-2-9 1-34-3h-7v109l-1 22 21-1 29-2 41-1h66l2 6-1 36-1 42-1 2-50 2-13-1-3 1-49 1-51-1h-11l-6-1-51 1-2-8v-24l2-15 1-13v-48l-1-51-1-29-1-7-1-53v-27l3-1-1-76-2-36-1-30v-22l3-21 2-13z" fill="#CD101E"/>
<path transform="translate(1149,1102)" d="m0 0h32l36 1 9 31 10 28 9 31 9 29 11 30 2 3h2l11-36 11-35 14-48 9-31 1-1h14l3-1h20l34 1 4 1 1 6-1 9 2 6v10l-1 3h-4l1 3 3 2v20l-1 3v12l1 1 1 18 1 3v108l-1 83-1 9 1 2v34l-1 1-41-1-15-1-2-5-1-139-1-46-1-3-4 11-6 23-9 32-16 64-11 46-5 14-1 2-12 2h-10l-2-2-12-48-15-64-10-39-8-30-2-1v17l-3 63-2 61-2 32-2 7-1 1-11 1h-13l-22-1-2-3z" fill="#CE101E"/>
<path transform="translate(1174,577)" d="m0 0h174l2 9v26l-3 21-5 5-4 1h-35l-1 13 1 16 2 65v107l-3 141h15l23 1 10 2v62l-4 3-11 4h-18l-25-3h-29l-2 1-68-1-14-1-3-4-3-13v-14l2-38 1-3h22l18 1-1-8v-23l4-4-1-15-1-73-2-23-1-25v-88l2-37 1-8v-15l-4-14-1-1h-33l-6-1-1-4v-60z" fill="#CE101E"/>
<path transform="translate(229,1102)" d="m0 0 23 1 1 2v96l1 93 2 96v40l-2 7-7 1-35-1-2-3-3-15-3-111v-33l-3 1-9 41-7 26-6 32-9 45-5 18-2 2h-13l-5-3-6-19-24-94-7-27-4-13-1-1-1 27-1 77 1 33v17l-1 2-21 3-7-1-4-1-6 1-5-1-2-8-1-23-1-71-2-82-1-23v-124l1-1 26-1 9-1h14l4 2 5 10 10 33 6 21 8 29 9 30 7 23 3 1 3-15 21-85 10-42 3-8 6-2z" fill="#CD101E"/>
<path transform="translate(1629,1101)" d="m0 0 4 2 8 16 10 27 18 44 14 31 7 21 1 1 3-90 2-41 1-9 5-1h45l1 8v90l-1 72 1 109v50l-2 5-5 1-19 1h-24l-6-12-16-41-11-29-13-31-11-25v-2l-2 2v141l-6 1-39-6-5-2-2-6-1-8v-317l1-1h8l7 1h15z" fill="#CE101E"/>
<path transform="translate(572,1101)" d="m0 0h20l10 1 1 4-1 27-1 93v94l-1 113-2 5h-15l-3 1h-19l-5-7-11-24-18-44-8-19-10-27-11-25-7-17-1-1-1 11v58l1 13 1 50v22l-2 7h-19l-26-1-3-2v-236l-2-60v-23l1-10 28 1 18 2 5 2 13 29 16 39 13 30 9 21 6 16v2h3l-1-8v-136z" fill="#CE101E"/>
<path transform="translate(841,1103)" d="m0 0h95l10 1 1 14 1 47 1 12-2 10-3 3h-45l-2-6-1-23-5-1-41-1 1 138v76l42 1 1-9 1-58-19 1h-13l-1-1v-31l1-13 1-3 19 1 11 1h43l13 1 1 1v20l-1 69-2 59-1 18-1 1h-69l-11 1-4-2-10 1h-26l-16-3-6-9-8-15-1-5-1-18-1-123v-111l4-11 9-15 9-12 4-4 3-1z" fill="#CD101E"/>
<path transform="translate(1415,1102)" d="m0 0h127l15 1 2 6 1 9 1 20v18l-6 2-25 1-58 1v78h67l9 1 1 5-1 40-2 2-15 1-9 2-8-1-32-1-12-1 1 2 1 40v55l4-1 45-2h43l1 3v52l-2 2-15 1h-22l-8 3-7 1h-14l-18-2-11-1h-35l-6-2-11-1-3-3v-99l-1-88v-54l1-61 1-28z" fill="#CE101E"/>
<path transform="translate(719,1101)" d="m0 0h16l2 1 2 21 6 50 6 43 7 56 7 46 6 37 6 45 3 25v9l-5 1h-41l-3-6-4-21-4-28v-3l-48 1-1 11-6 36-4 14-1 1h-38l-3-3v-19l7-55 5-41 4-27 7-53 14-105 4-28 1-5 2-1zm-19 119-4 27-9 52-2 22h32l-2-14-7-43-6-44z" fill="#CE101E"/>
<path transform="translate(324,1102)" d="m0 0h21l30 1 2 2 5 24 7 41 10 61 14 94 6 47 6 38 1 8v15l-1 1h-45l-3-8-6-27-1-5-54 1-1 11-6 26-2 4-2 1h-34l-5-1-1-2v-9l3-25 18-108 8-57 6-48 10-70 3-13 1-1zm21 134-6 36-10 58v6l7 1h22l4-1v-8l-8-55-4-25-3-12z" fill="#CE101E"/>
<path transform="translate(1041,1102)" d="m0 0h51l29 1 2 2 1 16v35l-4 2-60 1h-29v80h72l1 3v20l-1 24-4 1-40 1h-27v26l2 62h63l27 1 2 2v38l-3 13-3 2-80 1h-65l-1-8v-81l-1-44-1-13-1-38v-32l1-2v-111l3-1z" fill="#CE101E"/>
<path transform="translate(1759,836)" d="m0 0 5 4 6 1 2-2 1 28v78l-1 22 21-1 29-2 41-1h66l2 6-1 36-1 42-1 2-50 2-13-1-3 1-49 1-51-1h-11l-6-1-51 1-2-8v-24l2-15 1-13v-48l-1-51v-18h1v14h2l3 6 4 1 1-2 4 2 4-1 3-5 5-5 3-6 8-5 5-8 7-15 3-6 7-7z" fill="#CE101E"/>
<path transform="translate(1775,1103)" d="m0 0h25l33 2 14 1 2-1 16-1 1-1h38l2 1 22 1 17 2 1 1 1 10v23l1 17 1 9-2 1h-57v43l-1 1 1 8v17l-1 19v157l-1 20-2 9-5 1-42-1-7-2-1-13-2-49-1-99-4-9v-10l3-6 1-1v-81l-1-4-3-1-48-1-3-12-2-25v-25z" fill="#CE101E"/>
<path transform="translate(1174,1132)" d="m0 0 5 2 2 7v7l1 6h2l3 14 1 3-2 3 5 3 4 5 3 22 1 2v10l-5 1v6l1 3h2l-2 5 3 1 2 14 3 3h5l3 3-1 3-3-2v17l-3 63-2 61-2 32-2 7-1 1-11 1h-13l-22-1-2-3v-293h3v2h8l9 5-1-5h2l1-3h2z" fill="#CE101E"/>
<path transform="translate(1771,775)" d="m0 0 4 1 4 4v2l6-1 4 1 15-1 4 2v2l4 2 7 12 2 2 8 1h14l20-4 3-5 3-12 2-4 2 7v4h2l2 5v30l-2 2-3 7-6 3-8-1-18 1-3 1-1 3h-9l-9-1-4 1-34-3h-7l-2 6-7-1-5-4-6 2-4 5h-2l-3 9-8 16-6 7-6 3-4 8-4 2-1 4-3 3-5-1h-3-5l-2-7h-2l-3-32v-33l3-7 4-1 2 5 14-5 3-1v-2l5-1 8-4 7-1v-2l4-2 6-4h2v-2l5-3 7-6 3-6 5-5z" fill="#A80A19"/>
<path transform="translate(1468,1370)" d="m0 0h4v13l4-1 45-2h43l1 3v52l-2 2-15 1h-22l-8 3-7 1h-14l-18-2-11-1h-35l-6-2-11-1-3-3v-44h1v5l7-6 9-9 13-6h8z" fill="#CE101E"/>
<path transform="translate(1144,1506)" d="m0 0h6l1 2 6 2h28l15 2 50 2 12-1 25-2 29 1 16-1 12 1 14-3h6l3-1h7l13 3 9 3 1 1 20 2h12l8-1 22-1 10-2 3-4 6-3 5 1 2 5h19l2 2v4l-15 5-5-1-4-4-3-1-2 4-4 3h-7l-6-1-3 3h-10l-7 3-8 2-4 2-5-1-2-5-6 2-5 1-3-2h-10l-3-2v-3h-8l-9-4-4-2 2 5v5l-5 1-4-5-2-5-4-1 2 7v5l-2 2h-6l-12-7-13 1-11-1-7-4h-4v6l10 3v2h-16l-10-5-17-9-6-1 4 14-2 5-6 1-9-6-4-1-2 4-4 5-2 1h-10l-5-4-1-2-3 1-2 2-4-5-1-3-7 1-5 1-5-1-13-6-5 1-3 1-9-3-6-1-2 2-4-1h-3l-3 5-9-1-8-5-2 4-9 8-7-2-3-3h-3l-2 3-7 1-5-2-11 1-4-4-1-3-5 1-6-5v-2h-9v-3l3-2h3l2-4 4-2 4 2 1 5-1 4h6l7 1 5-5h9v-2l5-2 9 1h12l10-2z" fill="#A90A19"/>
<path transform="translate(640,1310)" d="m0 0h2v3l3 1 4 13v2l6 3v-3l7-1 5 5v2h2l6 7 3 9 2 14-1 12-4 1-1 11-6 36-4 14-1 1h-38l-3-3v-19l7-55 5-41h2l1-7h2z" fill="#CE101E"/>
<path transform="translate(1174,1132)" d="m0 0 5 2 2 7v7l1 6h2l3 14 1 3-2 3 5 3 4 5 3 22 1 2v10l-5 1v6l1 3h2l-2 5 3 1 2 14 3 3h5l3 3-1 3-3-2v17l-1 21h-2v-4h-2l-1-4-1-3h2l-1-10-1-4 1-2h2l-3-7v-4l-2-1v-2h-2l-3-5-5-3-4-4-1-4-2-3v-3h-3l-1 6h-2v2l-4-2-2-5-4-3-1-4-3-2v-2l-4 1 1 8-1 5 2 11 1 3 3 1 2 9 2 2v11l-2 4 5 9-2 4v9l-4 8-3-3-2-4v-3l-4-2-1-3 2-7-5 2-2 4v-149h3v2h8l9 5-1-5h2l1-3h2z" fill="#A80A19"/>
<path transform="translate(27,490)" d="m0 0 6 3 5-2h3l1 4 3 3v5l-8 2 1 7 4 5-2 4-5 3-1 4-4 2 3 1 121 1 4 4-1 3-3 1h-18l-11-1v2l-5 2-8 1h-12l-13-3-12-2h-21l-25 3-3 9-4 1-7-6 2 6 3 4v2l4 2 1 1v6l-4 4-4-1 4 11 4 7 1 8-3 3h-4l4 12 2 14v18l-3 5-3 2 5 5 1 9-1 3h-7l-6-2-2-18-6-7 1-11 5-8-1-10v-13l-2-12-1-16-4-18-1-1v-29l5-2 7 1 1 5 1 8h6v-10l-2-7-2-21 8-4zm-12 71v7l2-4 1-3zm1 7 1 2z" fill="#AB0B1A"/>
<path transform="translate(1965,546)" d="m0 0 5 1 2 7v12l2 1 2 7 3 3-1 4-1 5h7l1 3-3 9-3 4v7l6 2 1 1v22l6 3 1 4v17l-2 1-5-3 1 15-2 17 2 5v3l-2 1h-6l2 8 3 4v22l-7 1-3 4 2 5 4 4v7l-4 2 2 2v11l1 8-5-1-7-8v-2h-2l-1-2v-26l2-1-2-1v-182z" fill="#CD101E"/>
<path transform="translate(0,1212)" d="m0 0 5 2 6 4 11 8 1 1v52l-1 16v85l-2 17 3 24-3 1-6-4-4-9-3-13-4-23-2-24-1-62v-64l3 1 3 6 3 1-5-7-2-5-2-2z" fill="#CE101E"/>
<path transform="translate(13,1462)" d="m0 0 7 1 7 2h8l1 3v6l4-1 1-2 5 1 2 1 9 1v2l-10 4-4-1-2 6h-2v2l6 2h14l4-1h10l6 1h6l1 9 11 1h28l1-3h9l7-1 2-2h5l2 2 1 7h5v-5l3-2h5l3 3v7l-14 4-17-1-7 1 4 4-3 5-5 3-9-2-13-1-9 3-4 2h-13l-1-5 5-5-9-1 1 3v7l-5 1-3-1-2-5 1-6 4-4 6 1 2-6 3-4-1-2-8 4-4 4h-2v2l-6 2-4 8-2 1h-7l-2-4-4 1-2 3-10-1 1-6 4-7-9-2-5 10-5 3-7-1 1-5 6-9 3-2-7-1-1-5 1-6-1-6 2-15zm10 7-2 4 5 1-2-5zm0 24v3l5-2v-1zm123 6v2h2v-2zm-107 4v3l6 1 1-2-4-2z" fill="#AB0A19"/>
<path transform="translate(1640,864)" d="m0 0 4 2 1 9v99l-1 7-5 1-1 8 1 5-1 5h-2v-2h-2l-3-3-3-13v-10l-3-4v-3h-3v-2l-8-4-5-11-1-5-2-11 3-5v-13l2-10 1-1 1-11 4-18-1-9z" fill="#A80A19"/>
<path transform="translate(1958,967)" d="m0 0 15 1 6 2 1 7 7 4 1 3-2 10-4 5-6 1 4 18v10l3 10-4 2-1 12-5 3v3l5 3 3 11 4 2 2 3 2 23 1 26v30l-1 10-4 1-3-7-1-4-1-27-1-7-6-5-1-2v-10l-2-22v-11l-7-1-2-3v-9l2-20-1-8-1-7 7 2-1-20-4-8 1-5 8-3v-4h-2l-4-4-7-4-1-2z" fill="#CE111F"/>
<path transform="translate(1422,1301)" d="m0 0h7l3 3-2 12 3 5 5 3 12 6 6 4 2 5-7 1-4-1 1 7 8 4 6 1 3 2v4h2l1 6h3v2h-2l2 6-17 2-9 1-5 1-10 5-5 5-3 1-2 4h-2l-2 4h-2v-88z" fill="#A80A19"/>
<path transform="translate(17,822)" d="m0 0 5 1 4 9 4 7 1 1-1 37-2 12-6 24v14l3 20-1 10-8-1-10-5v-2h-2v-8l6 1 4 2-5-8-4-3-1-13-1-7v-35l-1-2 5-1-1-5-3-3-1-3v-12l3-4 7-2 4-6 3-3-2-6-3-6z" fill="#AB0B1A"/>
<path transform="translate(343,1498)" d="m0 0 9 1 8 2 19 1 10 2 8 2h8l5 5 7-2 9-1 6 5 5 1v-7l2-2 13-1 4 2v8l3-1 9 1h21l7-2 2-3 5-1 2 3 7 1h4v2l13-1 10-2 5 3-2 6h-20l-6-1-3 1-2 4h-5l-3-5v-2h-2l-1 5-3 3-8-1-7 1v-2l-7-1-7 3-7 1-4-4h-11l-4-1-2 1h-8l-7-3-2-5-5 2-16 1-2 5h-4l1-6-5 2-14 1v-2l-7-1-4 3-7-1-3-2-1 2-6-2-13 1-7-2v-2l-4-1 1-4 1-1 13-1 3-3-2-2z" fill="#A90A19"/>
<path transform="translate(1971,1139)" d="m0 0 4 1 3 4 1 8-1 5 4 20 3 40v9l-3 13 1 11-4 4 4 11 1 8-1 9-8 20 10-2 5 1-2 7-5 2h-8l-11 2-2-3 3-20 3-6 1-4-5-4v-7l8 3h3l-1-5-7-9-4-8-4-4 2-5 6-3 1-12 3-3-2-2v-41l1-37z" fill="#AB0B1A"/>
<path transform="translate(640,1310)" d="m0 0h2v3l3 1 4 13v2l6 3v-3l7-1 5 5v2h2l6 7 3 9 2 14-1 12-5 1v2l-7-2 1 3-4 3-7-1-2-5-3-1-7-8v-2h-2l-4-10-1-1-1-7-2-7v-20l2-7h2z" fill="#A80A19"/>
<path transform="translate(5,959)" d="m0 0 7 4 9 3 4 3 1 7-4 1-6-1 1 6 7 1 1 5 1 32-3 5 2 10 1 29 2 10 1 6-2 3-1 7-4 1-5-3-1-1v-11l1-8-6-21-3-14-3-17-4-6-1-10 3-1-1-2v-8l5 1 5 7h6l-1-4-7-1-3-5-4-8v-7l3-7z" fill="#AA0B1A"/>
<path transform="translate(217,1496)" d="m0 0 8 1 2 3 13 1 12 2 23 1 2 2-3 7-4 5-10 3-2-3-10-3-13-1-2 1h-8l-5-2-3-6-2-1-2 16-3 5h-19v-5l1-3-3 5-3 1-5-5 2-6 5-11-5 3-2 2-4-1v-3l5-3 3-3 4-1 5 3v3l6-1 3 6-1 5-2 2-1 4h2l2-4h2l1-6 3-2v-9zm-20 12 1 2z" fill="#AA0A19"/>
<path transform="translate(766,1335)" d="m0 0h2l10 72 2 18v9h-29l1-9 7-16h2l-1-20 1-5h2l-2-5-2-14 1-7 1-11 1-3h2l-1-5z" fill="#A90A19"/>
<path transform="translate(898,1501)" d="m0 0 5 1 3 1v2l4 2 10 8 4 6 1 5-5 4-8-1-1 4-5-1-2 2h-7l-5-4h-7l-2-4-4 3-5-1-2-5h-2l-4 6-2 2-4-1-1-10-3-1-5 2-5-2-3 1-6-2 2-4 2-5 10 1 3-1 6 4 14-1v-2l8-4 9 1 4 4v2h4z" fill="#A90A19"/>
<path transform="translate(0,1212)" d="m0 0 5 2 6 4 11 8 1 1v52l-5 3v-2h-3l-3-10v-10l-2-11-4-1-2 3v17l1 27 1 67v19l-2-2-2-15-1-15-1-62v-64l3 1 3 6 3 1-5-7-2-5-2-2z" fill="#A90A19"/>
<path transform="translate(1206,1103)" d="m0 0h11l9 31 10 28 9 31 9 29 2 5v3l-4 1v-2h-2l-1-7-3-5-2-7-7-10-2-6-3-3-2-5-3-13-3-9-3-12-3-7-1-3-3-1-8-16-2-3v-6l-2-2v-6l2-3h2z" fill="#A90A19"/>
<path transform="translate(1966,1057)" d="m0 0 7 1 5 3 3 11 4 2 2 3 2 23 1 26v30l-1 10-4 1-3-7-1-4-1-27-1-7-6-5-1-2v-10l-2-22v-11l-4-1v-3h-2l-1-7 1-3z" fill="#AE0C1B"/>
<path transform="translate(1646,1190)" d="m0 0h8l1 1h8l1 9 5 12 2 15-1 14 1 8-1 7-4-1-3-2v-2l-2-1 1-7-2-3v-3l-4-2v-2h-2l-2-5-9-6-7-10-4-6 1-6 6-8z" fill="#A80A19"/>
<path transform="translate(1638,626)" d="m0 0h2l1 3v66l-2 19h-2v-2l-6-1v-2h-2l-5-10-7-4-22-6-3-3 1-4 7-1 12 2 10 1 4-2 5-2v-15l2-18 2-12z" fill="#A90A19"/>
<path transform="translate(1968,1231)" d="m0 0 1 2h2l4 5v2l4 1 2-2 2 5v6l-4 4 4 11 1 8-1 9-8 20 10-2 5 1-2 7-5 2h-8l-11 2-2-3 3-20 3-6 1-4-5-4v-7l8 3h3l-1-5-7-9-4-8-4-4 2-5 6-3z" fill="#CE1220"/>
<path transform="translate(1666,1350)" d="m0 0 9 1 11 6 5 5v2l5 1 5 10-1 10-2 5h-2l1 3v6l-3 1v2h-9l-4-4-16-42-1-5z" fill="#A80A19"/>
<path transform="translate(10,671)" d="m0 0 7 1 5 5 1 4v37l-2 7 2 1v22l-2 12-3-1-2-5 1-23-9 6h-4v-9l4-17v-13l-1-3v-10l1-1 1-11z" fill="#CB0F1D"/>
<path transform="translate(1149,1386)" d="m0 0 2 4 1 8 2 4h2l1 3 9 5 6 6 2 5 3 1 12-3 6-5h5v12l-2 7-1 1-11 1h-13l-22-1-2-3z" fill="#A90B1A"/>
<path transform="translate(785,479)" d="m0 0h7l10 4 3-2h9l1 2-3 4 2 5 4 1 2-5h6l5 4 2 4 2-4 2-7 2-2h4l1 11 3 2v2l-12 3-19-1-10-1-9 1-25-2-9-2 3-1-2-4-5-4-1-3 1-1h8l13 6 6 2 13 1-4-4-10-4-2-3z" fill="#AC0B1A"/>
<path transform="translate(598,1152)" d="m0 0 2 1 1 47v26l-1 25-5-1-1-3-1-13-1-1v-7l-2-6-1-4 1-4 1-8-6-12v-19l5-5v-11l4-3h4z" fill="#AA0F1E"/>
<path transform="translate(454,1506)" d="m0 0h2v8l3-1 9 1h21l7-2 2-3 5-1 2 3 7 1h4v2l13-1 10-2 5 3-2 6h-20l-6-1-3 1-2 4h-5l-3-5v-2h-2l-1 5-3 3-8-1-7 1v-2l-7-1-7 3-7 1-4-4h-11l-4-1-2 1h-8l-5-2v-2l4-3 3 1h9l12-2z" fill="#AA0C1B"/>
<path transform="translate(1061,1376)" d="m0 0h36l13 1 1 4-1 2v24l-2 6h-5l-4-7-2-8-5-11-6-5-7 1v2l-7-1-4-2-3 1v27l-1 13-1 2h-3l-1-2v-22l1-22z" fill="#A80A19"/>
<path transform="translate(1e3 1491)" d="m0 0 5 1 4 6 5 5 1 3 7-2 1-1h5l2 3 1 9 3 8 3 3-7-1-2-1h-8l-4 1-5-1-1-5h-3v2l-4-2-3-6-4-3v7l-5-5-7-8-1-5 1-1h5l7 5 1 2 3 1 1-7-1-2z" fill="#830A19"/>
<path transform="translate(1296,634)" d="m0 0h11l7 2v2l-11 1-1 13 1 16v48l-1-2h-7l-4-2-1-3 1-2 7-2 1-1v-7l-2-5-4-5-1-9-4-8 1-5 2-2 1-10h-2l-5-5-4-3 5-1 9-1z" fill="#A80A19"/>
<path transform="translate(1978,715)" d="m0 0 5 1 1 7v8l-7 1-3 4 2 5 4 4v7l-4 2 2 2v11l1 8-5-1-7-8v-2h-2l-1-2v-26l2-1-2-1v-12l4-4z" fill="#7D0A19"/>
<path transform="translate(1697,574)" d="m0 0h30l5 2 2 2 12 1 3 1v3l-11 1-6 3-7 3h-8l-4 1h-7l-7 11-3 3h-4v-10l2-9 1-9z" fill="#AA0B1A"/>
<path transform="translate(1389,1106)" d="m0 0 2 1v7l-1 6 2 6v10l-1 3h-4l1 3 3 2v20l-1 3v12l1 1v19l-7 1-3-3-1-3 2-4 4-2-4-8-1-5 1-5h2l-2-13v-8-4l-2-4v-6l2-5v-13l1-8 5-2z" fill="#A90B1A"/>
<path transform="translate(1720,609)" d="m0 0 4 2 1 10-1 9-2 3h-3v13l-1 6 1 8-1 4v6l-3 3v9l-1 2h-2v3h-2l4 12-3 7-3 1-1 5h-2l-1-6 2-15 2-5v-28l1-14 1-3 3-13 6-14z" fill="#A80A19"/>
<path transform="translate(1951,514)" d="m0 0 5 2 9 8 5 5 4 8 3 1 2 7 2 1-1-8 4-1-1 9-6 8 1 6 6 4-1 3-5 1-5-1-1 2-1-4v-13l-1-5-5-1-1-7-24-1 1-4 6-4 1-1h5l-3-10z" fill="#AA0A19"/>
<path transform="translate(321,1469)" d="m0 0h28l23 2 15 3h10l4 1v2l2 1-4 1h-27l-17-2-5-1h-4l-14 3-40 1h-19v-2l8-2v-1h5v2l20-1h11v-2l2-1z" fill="#AE0D1B"/>
<path transform="translate(474,475)" d="m0 0h5l4 3h5l4-1 8 4 4 4h11v2l-5 3-3 5h-2l-1 2h-8l-5 1-4-2-4-4-5-2h-8l-7-3-7 1-6-6v-3l9-1 1-1h6l8 7 6 3-3-6-3-3z" fill="#AB0A19"/>
<path transform="translate(85,1131)" d="m0 0 18 2 8 2v3l2 1h-2v2l3 1v2l2 1 1 7 4 4 2 7v4l-5 2-4-4v-2l-4-2-6-5v-3l-4-1-3-3-3-1v-3l-4-2-1-4h-2l-2-5-2-1z" fill="#A80A19"/>
<path transform="translate(1972,1334)" d="m0 0 10 3 2 3-1 5-10 1 10 5 2 6-2 5-4 5-5 1-7-3-6-7-4-9v-4l11-1-1-5z" fill="#CE111F"/>
<path transform="translate(706,486)" d="m0 0 3 3v7l-6 3-15 5h-9l-7-3-7 2-7-1-3-6 1-4h2l3 5-1-6 2-3h8l7-1 3 3v6l10-1 2-5 7-1 6 2z" fill="#AC0C1B"/>
<path transform="translate(603,588)" d="m0 0 2 1 1 7v80l-2 4-3-8-1-7-1-3v-12l-1-5v-20l4-35z" fill="#A90A19"/>
<path transform="translate(838,603)" d="m0 0 4 1 4 11 4 6 5 17v16l-4-3-2-5-4-6-4-11-2-4-4-2-7-7 1-6 8-6z" fill="#7C0B1A"/>
<path transform="translate(1770,1493)" d="m0 0h8l7 3 12 3v2l7 1 8 4 1 2-12 4h-9l-2-2-6-1v-6l-7-3h-6l7 4 1 5-1 2h-9l-5-3v-5l2-2-7-2 2-2 9-2z" fill="#A90A19"/>
<path transform="translate(1868,1418)" d="m0 0 6 1h7l2 10-4 5-5 2h-9l-10-1h-7v2l-5-2-1-7 7-4 10-1z" fill="#A80A19"/>
<path transform="translate(1958,967)" d="m0 0 15 1 6 2 1 7 7 4 1 3-2 10-8 4-4-1-3-6 1-5h-2l-4-4-7-4-1-2z" fill="#AA0C1B"/>
<path transform="translate(1606,1501)" d="m0 0h6l2 2h8l11 2 1 5-3 4-18-2-2-4-3-1v8l-4 4h-9l-4-1h-17l-2-1 1-3 5-2 9-1 5-2 5-1z" fill="#A30A19"/>
<path transform="translate(211,525)" d="m0 0 4 1v4l4-1 6 1 4 6 7 3 2 1v4h-22l-4-1v-2l-3-1h3v-2l-29 1-7-1 2-4 18-2 13-4z" fill="#AC0A19"/>
<path transform="translate(719,1101)" d="m0 0h16l2 1 1 6v21l-7-2-2-6-4-1-3-1v-2h-2l-4-5-10-8v-2z" fill="#A80A19"/>
<path transform="translate(1173,614)" d="m0 0 3 1 3 10 4 3 7 2 7 6 12 2 5 5-2 1h-33l-6-1z" fill="#A90A19"/>
<path transform="translate(361,486)" d="m0 0 5 2 1 3h4l1-3 7-1 3 2 5 1-1 7-9 3-6-2-1 4-7 3h-12l-1-4-12-3v-1l18-2 3-8z" fill="#AA0B1A"/>
<path transform="translate(908,536)" d="m0 0h29l21 1 8 4v2l-6 2h-42l-10-2-2-2 1-4z" fill="#A90B1A"/>
<path transform="translate(938,1505)" d="m0 0 3 1 2 5 2 1v2l5 2 3 3v2h7l1 6h-2l1 4-8-2-4 4-6-3-1-3-8-3-2-2h-3v-8l4-4z" fill="#A90A19"/>
<path transform="translate(367,530)" d="m0 0h12l23 1 11 2v1l-8 1-2 4-2 1h-29l-21-3v-3z" fill="#AB0B19"/>
<path transform="translate(1006,477)" d="m0 0 6 1 4 3 1-3h5l2 4v4l8-1 4 1 2 5 2-1v2h2l-1 11-2 3-6-1-3-3v-7l3-1v-5l-13 1-1 3-6 1-7-4-2-5 1-7z" fill="#AE0D1B"/>
<path transform="translate(808,1505)" d="m0 0h5l3 5 1 6h6l1 4-4 1-7 1-3-3-2 3h-7l-5-2h-6l-1-3-3-4 1-3 7-2z" fill="#A90A19"/>
<path transform="translate(1383,1331)" d="m0 0 4 1 2 2 2-1v27l-5 1-8-5v-2l-5-2-1-5 7-14z" fill="#A80A19"/>
<path transform="translate(0,1251)" d="m0 0h1l2 22 1 19 1 3 1 67v19l-2-2-2-15-1-15-1-62z" fill="#8D0A19"/>
<path transform="translate(370,1506)" d="m0 0 9 1 8 2 9 1 2-1h8l1 3-1 3-4 1-3-1-5 3-16 1v-2l-5-1v-2l-19 1-3-2 1-3 3-2h10z" fill="#7C0A19"/>
<path transform="translate(543,957)" d="m0 0h6l-1 3-10 5-5 3-12 7-10 7-24 16h-3v2l-20 11-16 8-7 2 4-4 16-9 13-8 16-9 16-10 17-11 11-8z" fill="#A80A19"/>
<path transform="translate(1149,1512)" d="m0 0 11 1 9 4 4-1 4-2 9 1 19 3v4l-15 2-6-1-5 2-9-3-6-1-2 2-4-1-2-1h-5l-2-5z" fill="#7A0A19"/>
<path transform="translate(13,1462)" d="m0 0 7 1 7 2h8l1 3 1 6 2 2-4 1h-10l-6 3-3 5-4 1-3-3 1-14 2-6zm10 7-2 4 5 1-2-5z" fill="#800B1A"/>
<path transform="translate(1966,1057)" d="m0 0 7 1 5 3 2 7v7l1 8-1 9-1 2-5-1-1-9-3-1v-11l-4-1v-3h-2l-1-7 1-3z" fill="#AE111F"/>
<path transform="translate(10,671)" d="m0 0 7 1 3 2-1 4-5 3-2 9 1 2h7l2 1v10l-1 2h-3v2h-2v2l-2 1-2 6-4 1v-19l-1-3v-10l1-1 1-11z" fill="#AC0A19"/>
<path transform="translate(201,1269)" d="m0 0 5 1v8l-2-2h-3l-8 37h-3l-4-6-2-1 3-16 6-14 5-5z" fill="#A90B19"/>
<path transform="translate(17,845)" d="m0 0h11l2 1v24l-1 4h-6l-4-5-3-9-1-9v-5z" fill="#780A19"/>
<path transform="translate(1535,1138)" d="m0 0 14 1 9 2 2 2v14h-11l-2-3-7-1v-2h-2l-3-7z" fill="#A80A19"/>
<path transform="translate(314,1103)" d="m0 0h23l-1 5-5 5-4 2-4 4-3 1-3 3h-2l-1 3h-3l-1-2v-7l3-13z" fill="#A90A19"/>
<path transform="translate(1700,930)" d="m0 0h2l1 7 2 2 1 4v7l-3 8 1 7 4 3v2h-2v2l-10 10v-40l2-1-1-4 2-4h2z" fill="#A80A19"/>
<path transform="translate(1423,1129)" d="m0 0h4v19l1 11-2 7-5-1-4-4-1-5h-2v-13l4-5 4-4z" fill="#A80A19"/>
<path transform="translate(1968,1231)" d="m0 0 1 2h2l4 5v2l4 1 2-2 2 5v6l-5 4-1 2-5 1v2l-3 1-6-11-4-4 2-5 6-3z" fill="#CE111F"/>
<path transform="translate(1016,1502)" d="m0 0 3 2v2l7-2 1-1h5l2 3 1 9 3 8 3 3-7-1-2-1h-8l-4 1-5-1-1-4h4v-5l2-3h-2z" fill="#A80B1A"/>
<path transform="translate(626,527)" d="m0 0h21l3 3 3 7 2 1v2l2 1h-8l-5-3-13-3h-8l-4 1h-9l2-4 2-1-1-2 2-1z" fill="#AA0B1A"/>
<path transform="translate(5,959)" d="m0 0 7 4 9 3 4 3 1 7-4 1-6-1 1 6 2 2h-6l-5 3-2-3-3-5v-7l3-7z" fill="#AD0B1A"/>
<path transform="translate(564,578)" d="m0 0 2 2 2 17 2 11 1 8v21l-2 7-3 8-2-1v-50l-1-15-1-2z" fill="#AD0D1C"/>
<path transform="translate(4,907)" d="m0 0h1l4 12 5-3v2l3-1-1 3h-2l1 7 3 3-2 12-2 8 1 4-5-1-4-2v-2h-2v-8l6 1 4 2-5-8-4-3-1-13z" fill="#7C0B1A"/>
<path transform="translate(501,1508)" d="m0 0 3 1 1 2 7 1h4v2l13-1 10-2 5 3-2 6h-20l-6-1-3 1-2 4h-5l-3-5v-2h-3l-2-8z" fill="#AA0B1A"/>
<path transform="translate(13,983)" d="m0 0h11l1 5v27l-5-2-5-5-2-11h5l-1-4-7-1-2-2v-5l4-1z" fill="#7E0B1A"/>
<path transform="translate(1589,1226)" d="m0 0 4 4 5-1v2l7 1 2 4 2 10 1 2-2 5-6 1-3-2v-2l-2-1v-3h2l-1-10-4-2-1 2h-2l1 5-1 9-4 1v-24z" fill="#A80A19"/>
<path transform="translate(96,533)" d="m0 0h15l16 1h13l3-1h8l1 4-5 2h-22v2l-11-1-24-1-2-2 2-3z" fill="#790A19"/>
<path transform="translate(1936,546)" d="m0 0h7l1 1v10l-1 6v2h2v-18l2-1 6 1v18l-2 2h-12l-5-2v-9l1-9z" fill="#A90C1B"/>
<path transform="translate(626,1398)" d="m0 0h3l2 8-1 23 1 5 2 1 4 4h-14l-1-2v-19l2-16z" fill="#AA0B19"/>
<path transform="translate(1363,495)" d="m0 0h5l3 2 10 2 3 4 2 13h3l1-5 2 2-1 7-6-1-6-9v-2l-7 2-5-1-5-4-3-2-1-5z" fill="#AE0B19"/>
<path transform="translate(1478,1506)" d="m0 0 5 1 2 5h19l2 2v4l-15 5-5-1-4-4-3-1v2l-5-1-1-1 1-7z" fill="#A90B1A"/>
<path transform="translate(16,1183)" d="m0 0 3 1 3 10v12l-1 2-14-1-6-3-1-2v-6h11l3-4 1-8z" fill="#AF0C1B"/>
<path transform="translate(1224,1307)" d="m0 0 4 1 3 4 8 24 2 9 1 15h-3l-3-11-1-8h-3l-5-18-3-12z" fill="#AA0A19"/>
<path transform="translate(1980,1070)" d="m0 0 1 2 4 2 2 3 2 23v18l-5-5-3-5-1-10v-19l-1-7z" fill="#CE101E"/>
<path transform="translate(23,618)" d="m0 0h1l1 7v18l-1 3-10-2-6-6 1-5h2l2-9 10-2z" fill="#CE101E"/>
<path transform="translate(1390,1379)" d="m0 0h1v46l-6-1-4-9-2-6 2-3 1-5 2-4h2l1-9 2-4z" fill="#A80A19"/>
<path transform="translate(250,487)" d="m0 0 5 2 1 1 1 8h6l2 14-4 1v-4l-6-1v2h-6l-3-5-1-11h4v-6z" fill="#830A19"/>
<path transform="translate(760,1501)" d="m0 0h6l3 7 6 9-1 2-5-2v6l-8-1-5-4v-2l-8-1 1-5 7-1v2h5l2 1v-5l-4 1-1-5z" fill="#AD0C1B"/>
<path transform="translate(0,1212)" d="m0 0 5 2 4 2v8l4 6-2 12-8 3-2 5h-1v-27l3 1 3 6 3 1-5-7-2-5-2-2z" fill="#7B0A19"/>
<path transform="translate(1971,803)" d="m0 0h7l4 6 3 6 1 4h-6l-2 7-1 1h-6l-2-2 1-4-1-1v-13z" fill="#840C1B"/>
<path transform="translate(229,1102)" d="m0 0 23 1v9l-5-1v-2h-8l-3 2h-10l-2-1-13-2v-2l-2-1 6-2z" fill="#A80B1A"/>
<path transform="translate(1750,1500)" d="m0 0 4 2 1 3h2l-1 3-16 4-10 1h-6l-4-4 1-2z" fill="#A80A19"/>
<path transform="translate(145,1494)" d="m0 0 4 1 1 1v6h-2l-1 3-3-2-10 2-2 2-5 1 3 1v3h-10l-6-5 1-4 8-1 4-3 15-2zm1 5v2h2v-2z" fill="#7B0A19"/>
<path transform="translate(1139,1474)" d="m0 0h16l6 2 18 1 4 2-2 2-11 1-7 2-18-2-4-1-2-4z" fill="#AC0B1A"/>
<path transform="translate(493,1117)" d="m0 0 3 3 16 37 8 20-1 4-2-3-4-5-3-6-1-8-1-4-4-2-2-5-2-6 1-2h-2v-2h-2v-7h-2l-3-7-1-6z" fill="#AD0C1A"/>
<path transform="translate(672,487)" d="m0 0 7 1 1 7-6 2 2 5-4-1-7 2-7-1-3-6 1-4h2l3 5-1-6 2-3h8z" fill="#AA0A19"/>
<path transform="translate(1977,1254)" d="m0 0h2l3 7v8l-3 1 3 5-1 4-7 2-8-4-2-2v-7l8 3h3l-1-5-4-5v-2h2v-2l5-1z" fill="#AB0A19"/>
<path transform="translate(1517,1425)" d="m0 0 7 1 4 8v3l-10 4h-20v-3l6-3 7-1 4-7h2z" fill="#A90B1A"/>
<path transform="translate(1939,1107)" d="m0 0h6l1 1 1 10v19l-5 2-3-7-2-11v-12z" fill="#AC0B1A"/>
<path transform="translate(11,1488)" d="m0 0 8 5h3l1 2h5l-2 5-4 4-3 7-5 3-7-1 1-5 6-9 3-2-7-1-1-5z" fill="#810C1B"/>
<path transform="translate(188,1497)" d="m0 0 5 2 1 4 6-1v3l-4 1-2 5-4 6-1 7-3 1-5-5 2-6 5-11-5 3-2 2-4-1v-3l5-3 3-3z" fill="#AC0A19"/>
<path transform="translate(1877,822)" d="m0 0h1v14l-8 2-14 2h-21l2-5 9-1 13-1 8 1 5-3 3-8z" fill="#CE111F"/>
<path transform="translate(1965,749)" d="m0 0 7 2v2l5 2 1 1v11l1 8-5-1-7-8v-2h-2l-1-2v-12z" fill="#810C1B"/>
<path transform="translate(1292,1189)" d="m0 0h2l1 7-3 16-4 11-5 1-2-1v-7l7-22z" fill="#AA0A19"/>
<path transform="translate(55,1124)" d="m0 0 4 2 10 8 8 5 10 6v2l4 2 8 8v3l-6-2-11-9-20-14-5-3-2-3z" fill="#A80A19"/>
<path transform="translate(160,1495)" d="m0 0h5l3 3v7l-14 4-17-1-10 1-1-2 7-2 8-3 4 1 2 1 1-2h2v-3h2v3h5v-5z" fill="#B20E1D"/>
<path transform="translate(1730,577)" d="m0 0 3 2-1 6-1 1h-9l-4-1-11 2-6 8-4 4-1-5 2-10 2-2h9l7-3h10z" fill="#780A19"/>
<path transform="translate(848,1256)" d="m0 0h2l1 21v20l-1 29-2-4v-3l-2-1 1-5h-2l1-9v-12l-1-3 1-5v-18z" fill="#AD1523"/>
<path transform="translate(1387,1228)" d="m0 0 5 1 1 5-1 31-2 2-1-5-4-1-2-4 1-10 4-4-1-4-2-4h-2l2-6z" fill="#A90D1B"/>
<path transform="translate(1976,1410)" d="m0 0h7l2 5-4 7v4l-7 2-7 1-3-4 1-4 5-5h3l2-5z" fill="#A80A19"/>
<path transform="translate(1627,1431)" d="m0 0h9l2 1v9l-5 1-21-3-4-2 1-4z" fill="#AB0C1B"/>
<path transform="translate(307,704)" d="m0 0 4 4 3 1v10l-5 2h-8l-3-3-5-2v-3l5-3 3-5z" fill="#A90A19"/>
<path transform="translate(361,486)" d="m0 0 5 2 1 3 4 1-6 2-2 7 2 1v2l-2 1h-12l-1-4-12-3v-1l18-2 3-8z" fill="#AE0C1A"/>
<path transform="translate(1415,1102)" d="m0 0h9l3 7 1 5-1 10-1 4h-3l-2-6-1-4-6-4v-11z" fill="#A90A19"/>
<path transform="translate(832,619)" d="m0 0 5 2 9 7 6-1 3 11v16l-4-3-2-5-4-6-4-11-2-4-4-2z" fill="#A90A19"/>
<path transform="translate(976,1130)" d="m0 0 2 4v24l-1 13-2 4v8h-2l-1-7v-20l1-24z" fill="#AC101E"/>
<path transform="translate(216,1400)" d="m0 0h5l1 2-2 5h-2l-2 10-4 11h-3l-1-3v-20l3-3z" fill="#A80A19"/>
<path transform="translate(628,739)" d="m0 0 11 2 3 4v8l-5 2-5-1-5-5-4-3v-3l-2-1h2v-2z" fill="#A80A19"/>
<path transform="translate(1969,774)" d="m0 0 4 1 7 12 7 5-1 4-9 1-3-2-2-5-4-2z" fill="#840A19"/>
<path transform="translate(1414,1114)" d="m0 0 5 2 3 3 1 7 1 3-1 6-3 1-3 5h-2v2h-2v-12z" fill="#CE111F"/>
<path transform="translate(1883,490)" d="m0 0h19l12 3v4l-14 1-17-3-1-4z" fill="#CE1220"/>
<path transform="translate(1610,1501)" d="m0 0 4 2h8l11 2 1 5-3 4-18-2-2-6z" fill="#A80B1A"/>
<path transform="translate(1186,1281)" d="m0 0 9 1 4 2v9l-2 6h-2v-3l-6-2-4-3v-2h-2v-2h-2l-1-4z" fill="#A80A19"/>
<path transform="translate(7,1128)" d="m0 0 7 1 2 2 3-3 6 4 1 7-5-1-3-3 1 7v9h-2l-5-11-5-8z" fill="#880B19"/>
<path transform="translate(21,725)" d="m0 0 2 1v22l-2 12-3-1-2-5 1-23h-3l1-3 4-2 1 1z" fill="#C8101E"/>
<path transform="translate(128,744)" d="m0 0h4l5 9 5 5-1 3-5-1-3-4-4-1-2 6-4 7-5-1 4-9 5-9z" fill="#A80A19"/>
<path transform="translate(956,481)" d="m0 0 5 1-2 12-6 2-3 3-2 3-4-1-1-2h4l-1-10-1-6 3-1 6 3z" fill="#AC0E1D"/>
<path transform="translate(163,488)" d="m0 0 6 1 3 2 10 2 2 1 1 5-1 2h-12l-8-3-2-3zm6 8 2 2h5l-1-2z" fill="#880A19"/>
<path transform="translate(1244,1376)" d="m0 0 3 3v2l4 2 2 2-1 9-2 7-1 3h-3l-4-17v-7z" fill="#AB0A19"/>
<path transform="translate(608,577)" d="m0 0h45l-1 3-11 3-4-1-27-1-3-1z" fill="#A80A19"/>
<path transform="translate(1412,486)" d="m0 0 5 1 1 13-2 5 2 4-1 4-4-1-5-6v-3l4 1-4-11 1-5z" fill="#AA0A19"/>
<path transform="translate(1971,1139)" d="m0 0 4 1-1 2-1 20 1 12h-2v19l-2 15h-1v-29l1-37z" fill="#CE1321"/>
<path transform="translate(1852,499)" d="m0 0h8l6 12v5h-6l-1-3-6-2-3-3v-6z" fill="#A80A19"/>
<path transform="translate(205,493)" d="m0 0 4 1 5 3-1 3h-4l-1 4-2 1h-11l-3-4v-4h2v-2h8z" fill="#AA0A19"/>
<path transform="translate(1149,1512)" d="m0 0 11 1 13 6 4 1 1 2 4 2-3 1-9-3-6-1-2 2-4-1-2-1h-5l-2-5z" fill="#7E0A19"/>
<path transform="translate(21,1070)" d="m0 0 4 2v3h2v3h2l-2 5-1 7-4 1-5-3-1-1v-11l4-3z" fill="#800D1B"/>
<path transform="translate(897,1305)" d="m0 0h10l5 2v3l2 1-5 1-1-1-6 7-1 3-5-1-1-5v-9z" fill="#A70A19"/>
<path transform="translate(140,724)" d="m0 0 2 1 2 15 11 3 4 1-2 5-3 3-6 1-2-7-2-4h-3v-2h-2l-1-9z" fill="#AC0D1B"/>
<path transform="translate(1717,574)" d="m0 0h10l5 2 2 4-4-2-6 2h-8l-9 3h-7l-3 1 1-5 3-2z" fill="#AA0A19"/>
<path transform="translate(1006,477)" d="m0 0 6 1 2 4 4 1 1 1v7l-5 3-7-3-3-4 1-9z" fill="#780A19"/>
<path transform="translate(1413,1207)" d="m0 0 1 2 5 1 2 5v7l-2 7h2l-2 6-4 1 1-5h-3z" fill="#A80A19"/>
<path transform="translate(1943,494)" d="m0 0 5 1 8 4 2 4-1 11-5-3-4-4-4-2z" fill="#CE1422"/>
<path transform="translate(1827,1254)" d="m0 0 5 1 1 2v12l-2 9-2 2-5-10v-10z" fill="#A80C1A"/>
<path transform="translate(1367,1511)" d="m0 0h7l3 5-4 1 2 5v5l-5 1-4-5-2-5h-6l1-4z" fill="#7E0A19"/>
<path transform="translate(79,487)" d="m0 0 5 1h10l2 3v8l-2 3-4 1-3-1-5-9-4-4z" fill="#7E0A19"/>
<path transform="translate(1972,1334)" d="m0 0 10 3 2 3-1 5-10 1 2 2-4 1-5-3 2-2-1-5z" fill="#AF0E1C"/>
<path transform="translate(172,1227)" d="m0 0 4 3 5 15 2 4h2l-1 5-3 5-3-1-3-13-4-13z" fill="#A80A19"/>
<path transform="translate(1697,574)" d="m0 0h12v2l-9 3-2 1v8l-1 10 5-3-1 4-5 6h-4v-10l2-9 1-9z" fill="#AB0A19"/>
<path transform="translate(8,1095)" d="m0 0 9 1 11 3v7l-4 1-13-4-4-3z" fill="#840C1A"/>
<path transform="translate(20,675)" d="m0 0 2 2 1 4v22h-1v-10h-9l-2-5 3-8 5-2z" fill="#CE101E"/>
<path transform="translate(7,1022)" d="m0 0 1 2 3 1 3 7 1 6 4 13-5 5-3-9-3-14z" fill="#CE101E"/>
<path transform="translate(1147,481)" d="m0 0 5 1 2 5h2l5 12-1 2h-5l-5-6-2-4-4-2v-3l-2-1 6 1z" fill="#8B0A19"/>
<path transform="translate(398,1419)" d="m0 0 6 2 8 6v2l4 1v3h-18l1-7z" fill="#A80A19"/>
<path transform="translate(1960,913)" d="m0 0h13l4 8-1 3h-10l-5-3-1-2z" fill="#CB111F"/>
<path transform="translate(1643,874)" d="m0 0 2 1v99h-1l-1-69-2-5h2l-1-3 1-2-2-1 1-1 1-9h-2v-6h3v-2l-2-1z" fill="#CE1320"/>
<path transform="translate(1481,844)" d="m0 0 5 4 1 2v10l-4 16-2 1-1-9v-17z" fill="#AF0E1C"/>
<path transform="translate(1972,930)" d="m0 0h5l2 2-1 5-3 2-2 3-5-3v2l-6 1-2-1v-7l4-1h4l1-2z" fill="#96101F"/>
<path transform="translate(1946,546)" d="m0 0 7 1v18l-2 2-6-1v-19z" fill="#AD0D1C"/>
<path transform="translate(111,532)" d="m0 0h43l4 4-1 3-3 1h-18v-1l15-2v-3h-8l-3 1h-17l-12-1z" fill="#A80A19"/>
<path transform="translate(440,1506)" d="m0 0 7 1 7-1 1 1v7l-9 2h-5l-3-4 1-5z" fill="#780A19"/>
<path transform="translate(1741,1202)" d="m0 0h3l-1 6-5 8-2 1h-7v-7l7-6z" fill="#A80A19"/>
<path transform="translate(302,883)" d="m0 0 7 1 2 1 1 7v10l-1 9-3-2-1-10-1-7-6-7z" fill="#AC0C1B"/>
<path transform="translate(355,1032)" d="m0 0 3 3 2 9 2 3-1 4h-6l-4-9-2-6 2-3z" fill="#A80A19"/>
<path transform="translate(689,674)" d="m0 0h1v11l-7-2-6-2h-7l-5-1v-2l8-2z" fill="#A80A19"/>
<path transform="translate(219,579)" d="m0 0h14l2 1-2 5-2 7-1 1h-5l-1-4v-3h-2l-3-3z" fill="#A80A19"/>
<path transform="translate(1367,501)" d="m0 0h8l4 3 4 1 3 11h3l1-5 2 2-1 7-6-1-6-9-1-3-6 1-3 1-2-6z" fill="#7A0A19"/>
<path transform="translate(818,1106)" d="m0 0h2l-1 7-5 9-3 3h-2l-2 4-4-1 2-5 9-13z" fill="#AC0A19"/>
<path transform="translate(69,1507)" d="m0 0 6 1v2l2 1-4 1 1 3v7l-5 1-3-1-2-5 1-6z" fill="#B10D1B"/>
<path transform="translate(12,1441)" d="m0 0 5 2 8 10 6 6v2l-9-3-6-4-3-5z" fill="#890B19"/>
<path transform="translate(7,1158)" d="m0 0 16 2 3 3-1 4-19-2-2-4z" fill="#920B19"/>
<path transform="translate(706,1503)" d="m0 0h5l2 3 2 13v3l-4 1v-5h-2v6l-3-2v-13l-1-4z" fill="#880A19"/>
<path transform="translate(20,652)" d="m0 0 3 1 2 5-1 9h-7l-3-2h2l-3-6v-2l5-4z" fill="#AE0B19"/>
<path transform="translate(1768,1499)" d="m0 0 10 5 1 5-1 2h-9l-5-3v-5z" fill="#B1101F"/>
<path transform="translate(851,1131)" d="m0 0 2 3 1 8 2 11-1 5-5-1-1-9-1-11 2-5z" fill="#A80A19"/>
<path transform="translate(1969,969)" d="m0 0h9l1 1 1 7 2 5-5 3-4-6-4-4z" fill="#7D0A19"/>
<path transform="translate(79,484)" d="m0 0 5 1 7 3v1h-7l-5-1v3l4 2 4 6-1 2-6-8-4-3-10 1-5-1 1-4 2-1h11 3z" fill="#AB0A19"/>
<path transform="translate(1971,1073)" d="m0 0h2v2l4 1 3 6v10l-1 2-5-1-1-9h-2z" fill="#780A19"/>
<path transform="translate(9,1399)" d="m0 0 4 4v4h3l7 11-1 4-6-2-4-5-3-9z" fill="#AD0A19"/>
<path transform="translate(633,1504)" d="m0 0h3v6l-3 5-2 7-3 1-1-3h-4l1-5 5-8h2v-2z" fill="#860A19"/>
<path transform="translate(676,1517)" d="m0 0h5l3 5v5l-4 3-9-2 1-4 2-5z" fill="#800A19"/>
<path transform="translate(856,488)" d="m0 0 4 1v2h2v2h3l-1 6-5 2-11-3 4-2 1-5z" fill="#A70A19"/>
<path transform="translate(431,1515)" d="m0 0 12 2h9l4 4-2 1h-8l-4-1-2 1h-8l-5-2v-2z" fill="#CE1421"/>
<path transform="translate(1184,1187)" d="m0 0 5 3v2h2l2 8v2 5h-2v2h-2l-4-7-1-9z" fill="#CD0F1D"/>
<path transform="translate(939,1104)" d="m0 0h7v38l-2-4-1-7-1-9 2-2-3-10z" fill="#A80A19"/>
<path transform="translate(611,1509)" d="m0 0 5 1v7l-2 8h-1v-5h-2l-1 7h-2l-2-5 1-8z" fill="#8B0A19"/>
<path transform="translate(677,495)" d="m0 0 14 1 1 4-5 3h-11l-2-3v-3z" fill="#7B0A19"/>
<path transform="translate(1223,1138)" d="m0 0 5 5 1 9 3 8 1 13-3-1-4-13-1-9-1-5-1-1z" fill="#780A19"/>
<path transform="translate(128,489)" d="m0 0 5 1 1 9-7 1-5-5-2-5z" fill="#890A19"/>
<path transform="translate(197,1504)" d="m0 0h3l1 7-7 12-3 1 2-6-2 3h-2l1-5 4-6 2-5zm0 4 1 2z" fill="#7F0A19"/>
<path transform="translate(853,1419)" d="m0 0h4l1 4 4 2 1 4-6 1h-11l5-10z" fill="#A90A19"/>
<path transform="translate(1587,1252)" d="m0 0 3 1 2 6v14l-1 6-3-1-1-3v-18-2z" fill="#A80A19"/>
<path transform="translate(1249,483)" d="m0 0 11 2-2 1 6 7-2 4-4-1-3-2v-2l-4-2v-2h-2z" fill="#A00A19"/>
<path transform="translate(1966,1057)" d="m0 0h5l1 1v14l-6-1v-3h-2l-1-7 1-3z" fill="#790A19"/>
<path transform="translate(4,941)" d="m0 0 6 1 4 2v-2h2l-2 8 1 4-5-1-4-2v-2h-2z" fill="#820A19"/>
<path transform="translate(1036,489)" d="m0 0 2 2 2-1v2h2l-1 11-2 3h-4l-2-3v-6z" fill="#7E0A19"/>
<path transform="translate(1920,546)" d="m0 0h9l1 5v9l-1 3h-3l-4-12-2-2z" fill="#B40E1C"/>
<path transform="translate(1985,1300)" d="m0 0 5 1-2 7-5 2-6-1-1-6z" fill="#AE0B19"/>
<path transform="translate(1475,1508)" d="m0 0h6l3 5 1 6-6-2v2l-5-1-1-1 1-7z" fill="#790A19"/>
<path transform="translate(1293,1524)" d="m0 0 7 2 7-2v2l10 3v2h-16l-9-4z" fill="#CE1220"/>
<path transform="translate(972,1104)" d="m0 0h9l-2 11h-2v3l-4-1-1-3z" fill="#A80A19"/>
<path transform="translate(11,1424)" d="m0 0 5 1 8 5 2 2v3l-9-1-5-4z" fill="#AE101E"/>
<path transform="translate(409,482)" d="m0 0 3 1v3h7l1 4-7 2-10-4 1-4z" fill="#AC0D1C"/>
<path transform="translate(527,1519)" d="m0 0h13v3l-3 2-12 2-3-2v-4z" fill="#CE1220"/>
<path transform="translate(9,649)" d="m0 0h8l3 2v2l-4 1-1 3h-2l3 5v3h-5z" fill="#7E0C1B"/>
<path transform="translate(565,1508)" d="m0 0 4 1-1 6-3 7-6-3 1-8z" fill="#8B0A19"/>
<path transform="translate(1298,637)" d="m0 0 5 1-1 9-1 11h-3l-1-5v-15z" fill="#840A19"/>
<path transform="translate(160,1495)" d="m0 0h5l3 3v7h-8l-2-4v-5z" fill="#7E0A19"/>
<path transform="translate(1426,1359)" d="m0 0h11l3 2-2 5-8 1-4-4z" fill="#CE101E"/>
<path transform="translate(1965,1380)" d="m0 0h20l1 4h-22l-2-2z" fill="#CE101E"/>
<path transform="translate(586,1120)" d="m0 0 10 1 1 2v3l-1 3h-7l-5-4v-4z" fill="#A80A19"/>
<path transform="translate(662,491)" d="m0 0 5 5v4l-3 2h-6l-3-6 1-4h2l3 5v-5z" fill="#810A19"/>
<path transform="translate(1081,1522)" d="m0 0 10 2 5 2 1 3-5 2h-6l-4-4z" fill="#CE101E"/>
<path transform="translate(1603,1262)" d="m0 0h3l1 6-1 5-5 2-2-2-1-3 2-7z" fill="#A80A19"/>
<path transform="translate(1970,829)" d="m0 0h5l4 5-4 4-6 1-1-1v-6z" fill="#A30B19"/>
<path transform="translate(713,1512)" d="m0 0 2 4h2v-2h2v12l-3 3-5-3v-3l4-3-2-4z" fill="#AF0B19"/>
<path transform="translate(1628,1432)" d="m0 0h7l2 3h-2v2l-9 3-3-2-1-4z" fill="#780A19"/>
<path transform="translate(585,1427)" d="m0 0h7l1 3-3 7h-6l-1-2v-6z" fill="#780A19"/>
<path transform="translate(2,989)" d="m0 0 5 1 1 1v6l-3 1-2 11-3-4v-5l3-1-1-2z" fill="#920B1A"/>
<path transform="translate(1006,1499)" d="m0 0 3 3 3 5-1 4h-6l-6-5-2-4 3 1 1 2 3 1 1-5z" fill="#A80A19"/>
<path transform="translate(188,1497)" d="m0 0 2 1v2h2l-1 5-3 2-1-4-6 5-4-1v-3l5-3 3-3z" fill="#AA0A19"/>
<path transform="translate(510,1159)" d="m0 0 3 1 7 17-1 4-2-3-4-5-3-6-1-7z" fill="#AE0E1C"/>
<path transform="translate(1574,730)" d="m0 0 10 1 4 3-2 2h-15l1-4h2z" fill="#A80A19"/>
<path transform="translate(303,489)" d="m0 0 4 5 2 3 8 3v1l-13 1-4-4 2-1v-6z" fill="#B40B1A"/>
<path transform="translate(1412,486)" d="m0 0 5 1v8h-3-2l-1 3-2-2-1-7z" fill="#CE1321"/>
<path transform="translate(1607,1510)" d="m0 0h1l-1 7-3 2h-9l2-7h10z" fill="#CE1321"/>
<path transform="translate(1174,1178)" d="m0 0 7 3 1 6-5 3-5-5 1-6z" fill="#CE101E"/>
<path transform="translate(1949,501)" d="m0 0 6 2 2 1v10l-5-3-4-4z" fill="#A90A19"/>
<path transform="translate(1372,1517)" d="m0 0 2 2 1 8-5 1-4-5v-4z" fill="#AF0B19"/>
<path transform="translate(590,1424)" d="m0 0 5 1v7l-5 5 1-5 1-4h-7l-1 1v8h-2l-1-3v-7l3-2z" fill="#A80A19"/>
<path transform="translate(700,1207)" d="m0 0 3 1 1 2v19l-2-3v-6h-3v-9z" fill="#A70A19"/>
<path transform="translate(262,1508)" d="m0 0h5v8l-2 2h-5l-1-1v-7z" fill="#780A19"/>
<path transform="translate(13,1462)" d="m0 0h4l1 3-3 9h-3v4h-2v-9l2-6z" fill="#AE0E1D"/>
<path transform="translate(1060,490)" d="m0 0h1v8l-1 2h-5l-3-3v-5l4-1z" fill="#900A19"/>
<path transform="translate(1961,933)" d="m0 0h8l1 6h-2v2l-6 1-2-1v-7z" fill="#AF1220"/>
<path transform="translate(390,1493)" d="m0 0 9 1 1 4-3 3-6-1-2-5z" fill="#A80A19"/>
<path transform="translate(1175,1194)" d="m0 0 6 1 1 3-1 9-3-1-4-4z" fill="#CE101E"/>
<path transform="translate(766,1508)" d="m0 0 5 2 4 8h-4l-2-1-1 3-3-4v-7z" fill="#820A19"/>
<path transform="translate(810,1509)" d="m0 0 4 1v8l-6 2-2-3 1-5z" fill="#780A19"/>
<path transform="translate(485,1261)" d="m0 0h2v2h2l2 5 3 10h-2l-4-4-1 3z" fill="#A70A19"/>
<path transform="translate(1975,1218)" d="m0 0h3l1 2v8l-2 2h-3l-2-6 1-5z" fill="#790A19"/>
<path transform="translate(1961,887)" d="m0 0 7 1 3 7-5 1-5-3-1-4z" fill="#CE1321"/>
<path transform="translate(1924,521)" d="m0 0 5 1 5 5v4h-5v-2l-4-2-2-5z" fill="#A80A19"/>
<path transform="translate(907,1516)" d="m0 0 2 2 1 11-1 2-5-1-1-6z" fill="#780A19"/>
<path transform="translate(760,1501)" d="m0 0h6l3 8h-3l-2 4-1-1v-5l-4 1-1-5z" fill="#A80A19"/>
<path transform="translate(1589,1301)" d="m0 0 4 2 1 12-2 1-3-2-2-4 1-6z" fill="#A80A19"/>
<path transform="translate(22,1110)" d="m0 0h5v6l-3 3-6-3-2-4z" fill="#930B1A"/>
<path transform="translate(1770,651)" d="m0 0 9 2 5 5h-13z" fill="#A80A19"/>
<path transform="translate(209,533)" d="m0 0 5 1 6 3-1 3-3 1h-7l3-1v-2l-6-1z" fill="#7C0A19"/>
<path transform="translate(290,1470)" d="m0 0h8l5 1-1 3 1 2h-15l2-3-4-2zm6 2v2h3v-2z" fill="#D01D2A"/>
<path transform="translate(7,1158)" d="m0 0 10 1-3 1 1 4-1 1h-8l-2-4z" fill="#AB0B1A"/>
<path transform="translate(11,1488)" d="m0 0 8 5h3l1 3-5 1-8-1-1-5z" fill="#970B1A"/>
<path transform="translate(18,1128)" d="m0 0 6 3 2 3v5l-5-1-3-3-1-6z" fill="#8A0B1A"/>
<path transform="translate(450,1504)" d="m0 0 4 2-8 2-6-1-1 5 4 5h-9l-1-3h4v-7l2-2z" fill="#A80A19"/>
<path transform="translate(1697,574)" d="m0 0h12v2l-9 3-2 1-2 6h-1v-9z" fill="#CE1321"/>
<path transform="translate(1433,504)" d="m0 0 3 1 2 9-1 1h-5l-3-5-1-5 6 5z" fill="#920A19"/>
<path transform="translate(15,556)" d="m0 0h2l-1 5v9l-5-1v-10z" fill="#7D0A19"/>
<path transform="translate(1559,1513)" d="m0 0 5 1 1 6-3 1v3h-2l-2-3v-7z" fill="#900A19"/>
<path transform="translate(151,532)" d="m0 0 4 1 3 3-1 3-3 1h-18v-1l15-2z" fill="#B4101E"/>
<path transform="translate(8,1508)" d="m0 0h10l1 3-5 3-7-1z" fill="#B01321"/>
<path transform="translate(306,1500)" d="m0 0 7 1-1 5h-9l1-3h-6l1-2z" fill="#A80A19"/>
<path transform="translate(1636,1286)" d="m0 0h2l4 8 2 6-1 4-3-6-3-1-1-4z" fill="#A80A19"/>
<path transform="translate(838,603)" d="m0 0 4 1-1 2h-2l-2 5-7 2-1 4-1-5 4-4z" fill="#A90A19"/>
<path transform="translate(8,593)" d="m0 0 1 2 5 1v6l-3 4-1 5h-1z" fill="#CE101E"/>
<path transform="translate(1961,504)" d="m0 0 3 2 3 11-1 4-4-2z" fill="#CD1825"/>
<path transform="translate(1982,645)" d="m0 0 8 1v3l-6 2h-6l1-4z" fill="#A80A19"/>
<path transform="translate(705,487)" d="m0 0 3 3-2 6-7 2-1-5 7-2z" fill="#780A19"/>
<path transform="translate(1604,1294)" d="m0 0 7 1 1 5-6 2-4-4z" fill="#A80A19"/>
<path transform="translate(719,1101)" d="m0 0h16l2 1 1 6v10h-1v-9h-2l-4-6-12-1z" fill="#D01D2A"/>
<path transform="translate(201,496)" d="m0 0 2 1 1 6-8 1-1-5 2-2z" fill="#780A19"/>
<path transform="translate(1958,967)" d="m0 0h6v4h-2v8l-3-1-1-2z" fill="#CF1926"/>
<path transform="translate(1631,721)" d="m0 0 1 2 3-2h4l-1 5-4-1-9 1-1-3z" fill="#A80A19"/>
<path transform="translate(21,586)" d="m0 0h3l2 10-3 3-3-1h2v-3h-2v-5z" fill="#CE101E"/>
<path transform="translate(459,1519)" d="m0 0 10 3h3v-2l3 1-4 3-10 2-3-4h2z" fill="#CE1422"/>
<path transform="translate(360,1514)" d="m0 0h13l-4 4-7 1-5-4z" fill="#BE1220"/>
<path transform="translate(1658,1508)" d="m0 0 3 1-1 5-7 1-1-1v-5z" fill="#A80A19"/>
<path transform="translate(1635,1431)" d="m0 0 3 1v9l-5 1-8-1 3-2 7-2v-4z" fill="#AC0F1D"/>
<path transform="translate(237,1256)" d="m0 0 7 1 1 6-5 1-3-3-1-4z" fill="#A80A19"/>
<path transform="translate(5,520)" d="m0 0 7 1v2l-4 2-7-1 1 4-2 4v-10z" fill="#CE101E"/>
<path transform="translate(1495,1513)" d="m0 0h8v4l-1 1h-8l-1-4z" fill="#780A19"/>
<path transform="translate(1675,534)" d="m0 0h8l1 2h-4v2h3l-1 3-8-1z" fill="#AB0F1D"/>
<path transform="translate(136,1513)" d="m0 0 5 1v6l-4 2-2-1-1-5z" fill="#B40C1A"/>
<path transform="translate(83,1510)" d="m0 0 5 1 4 3-1 2-8 1-1-4z" fill="#7A0A19"/>
<path transform="translate(1965,1056)" d="m0 0h6v1l-7 1v10h2v3l-4-1-1-2v-9z" fill="#B10B1A"/>
<path transform="translate(399,1514)" d="m0 0 5 1h6v1l-8 1-2 5h-4l1-7z" fill="#C10E1C"/>
<path transform="translate(20,558)" d="m0 0 4 2 1 1v6l-4 4-1-4z" fill="#B31523"/>
<path transform="translate(365,493)" d="m0 0h4v6l-3 3-4-1 2-7z" fill="#780A19"/>
<path transform="translate(1380,510)" d="m0 0 3 1v2h2l1 3h3l1-5 2 2-1 7-6-1-5-7z" fill="#9F0A19"/>
<path transform="translate(1783,1506)" d="m0 0 1 3h6l5 4-9 1-4-4z" fill="#CF1523"/>
<path transform="translate(1161,1155)" d="m0 0 2 1v2l3 1-2 1 2 4v3l-4-2-4-7 3-1z" fill="#CE101E"/>
<path transform="translate(250,1155)" d="m0 0 1 4-5 7-4 1 1-6z" fill="#A80A19"/>
<path transform="translate(163,488)" d="m0 0 6 1 3 2 10 2 2 1-1 3v-2l-12-2-7-2-2 4z" fill="#A80A19"/>
<path transform="translate(1006,477)" d="m0 0 6 1 2 3-3 1-1 3-5-2v-5z" fill="#AE0B19"/>
<path transform="translate(420,1510)" d="m0 0 7 1 2 4-1 1h-5v-2h-5z" fill="#820A19"/>
<path transform="translate(139,1400)" d="m0 0 4 1 2 2-1 5-4 1-1-2z" fill="#A80A19"/>
<path transform="translate(731,1507)" d="m0 0h5l2 2v3h-3l-1 4-3-3z" fill="#890A19"/>
<path transform="translate(869,1261)" d="m0 0h8l3 2-7 2v2h-3l-2-5z" fill="#AC0A19"/>
<path transform="translate(21,725)" d="m0 0 2 1-1 5-4 5-1-5h-3l1-3 4-2 1 1z" fill="#80101E"/>
<path transform="translate(641,532)" d="m0 0h6v4l-1 1h-7l-1-4z" fill="#800A19"/>
<path transform="translate(1964,1268)" d="m0 0 8 3-2 2-1 5-4-2-1-1z" fill="#CF1523"/>
<path transform="translate(1252,1219)" d="m0 0 2 3 2 5v3l-4 1v-2h-2l1-8z" fill="#B30B1A"/>
<path transform="translate(19,558)" d="m0 0 2 4-1 9-3-1-1-6z" fill="#890B1A"/>
<path transform="translate(672,487)" d="m0 0 7 1 1 5-9-1-1-4z" fill="#D01B29"/>
<path transform="translate(1339,500)" d="m0 0h5v2l-2 1-2 4-4 1-2-1v-2h3z" fill="#AF0B19"/>
<path transform="translate(250,487)" d="m0 0 5 2 1 1v6l-1-2-5-2-1 2v-6z" fill="#C40E1C"/>
<path transform="translate(1767,1507)" d="m0 0 10 1 1 3h-9l-4-2z" fill="#CE101E"/>
<path transform="translate(408,1049)" d="m0 0h12v2l2 1h-13l-2-2z" fill="#B11120"/>
<path transform="translate(306,846)" d="m0 0h5l1 4-2 4-4-2z" fill="#A90A19"/>
<path transform="translate(1020,830)" d="m0 0h1l1 8-4 1-2-3 1-5z" fill="#AB0A19"/>
<path transform="translate(194,495)" d="m0 0h7v2l-5 2 1 6-4-2-1-6h2z" fill="#AA101F"/>
<path transform="translate(674,1519)" d="m0 0 1 2 1 4 6 3-2 2-9-2 1-4z" fill="#A90A19"/>
<path transform="translate(187,1499)" d="m0 0 5 1-1 5-3 2-1-4-4 1 2-4z" fill="#7C0A19"/>
<path transform="translate(1315,636)" d="m0 0h18l-1 3-17-1z" fill="#A80A19"/>
<path transform="translate(1123,486)" d="m0 0h3l3 6-2 4h-2l-2-6z" fill="#970A19"/>
<path transform="translate(1e3 486)" d="m0 0 3 1 5 5 7 1-2 2h-7l-2-4-3-1z" fill="#A80A19"/>
<path transform="translate(485,1386)" d="m0 0h4v9l-5-3z" fill="#A80A19"/>
<path transform="translate(1679,1383)" d="m0 0 4 2v2h2l1 4-1 2-3-1-3-5z" fill="#780A19"/>
<path transform="translate(6,1113)" d="m0 0 6 5 1 4-3 1-3-2z" fill="#A11321"/>
<path transform="translate(1775,500)" d="m0 0h2l1 3v7l-5-5-1-4z" fill="#A90A19"/>
<path transform="translate(1172,1519)" d="m0 0 5 1 1 2 4 2-3 1-9-3-3-2z" fill="#B41221"/>
<path transform="translate(183,1514)" d="m0 0 2 2 1 7 3 1-3 1-5-5z" fill="#CE101E"/>
<path transform="translate(195,1510)" d="m0 0 3 1-4 5-3 5h-2l1-5z" fill="#8A0B1A"/>
<path transform="translate(1034,493)" d="m0 0 1 3-1 1v6l1 2-4-2-1-1v-7z" fill="#A80A19"/>
<path transform="translate(219,490)" d="m0 0 5 1 1 1v6h-5l1-4z" fill="#AC0A19"/>
<path transform="translate(860,1523)" d="m0 0 1 2 6 2-3 4-4-1z" fill="#CB0F1D"/>
<path transform="translate(1147,1522)" d="m0 0 6 1-1 4-9-1z" fill="#D11E2C"/>
<path transform="translate(499,1510)" d="m0 0h4l1 2v6l-4-1z" fill="#780A19"/>
<path transform="translate(1230,477)" d="m0 0 5 1 5 3-3 1-4-1-1 3-2-4z" fill="#CF1725"/>
<path transform="translate(1982,801)" d="m0 0h5l1 4-1 2-4-1-2-4z" fill="#9B0B1A"/>
<path transform="translate(246,506)" d="m0 0 3 3 6 1v-2h2v2l4 1v1h-8l-6-2z" fill="#AE0A19"/>
<path transform="translate(581,1509)" d="m0 0 7 1 1 4-2 2-3-3-4-1z" fill="#AA0A19"/>
<path transform="translate(1609,1502)" d="m0 0 3 2-1 3h-3l-1 2-3-1v-3z" fill="#7D0A19"/>
<path transform="translate(275,1477)" d="m0 0 17 1-3 2h-16v-2z" fill="#AA1220"/>
<path transform="translate(568,581)" d="m0 0 3 1 1 3v7h-2l-2-6z" fill="#CC1F2C"/>
<path transform="translate(1981,537)" d="m0 0h3l-1 9-3 2-1-2h2l-1-8z" fill="#CE101E"/>
<path transform="translate(23,1480)" d="m0 0 5 2v2h2v2l-7-1-1-3z" fill="#CE101E"/>
<path transform="translate(212,1503)" d="m0 0h6l2 1v4l-7-1z" fill="#7E0A19"/>
<path transform="translate(437,1474)" d="m0 0h6l3 4-5 1-3-1z" fill="#AA0A19"/>
<path transform="translate(290,1470)" d="m0 0h8l1 2h-3v2l-10-2z" fill="#DF656E"/>
<path transform="translate(754,492)" d="m0 0 7 1 1 3h-8z" fill="#B00B1A"/>
<path transform="translate(706,486)" d="m0 0 3 3v7l-6 3-3-1 6-3 1-5z" fill="#A80A19"/>
<path transform="translate(1233,481)" d="m0 0 7 1 1 3-7 1z" fill="#AC0A19"/>
<path transform="translate(1529,1524)" d="m0 0 5 1-1 4h-6l1-4z" fill="#AA0A19"/>
<path transform="translate(693,817)" d="m0 0 3 1v7l-4-2v-5z" fill="#A90A19"/>
<path transform="translate(0,1212)" d="m0 0 5 2 2 2-4 1-1 2-2-2z" fill="#B50C1A"/>
<path transform="translate(1983,550)" d="m0 0h2l2 9-2 2-2-5z" fill="#BA0C1B"/>
<path transform="translate(1977,1328)" d="m0 0h3l1 6-3 1-3-3z" fill="#BE1725"/>
<path transform="translate(25,1442)" d="m0 0 5 1v3l-6-1z" fill="#B30B1A"/>
<path transform="translate(1976,955)" d="m0 0 2 2v5l-3-1-1-4z" fill="#C80F1D"/>
<path transform="translate(1966,782)" d="m0 0h1l-1 10-2-2v-6z" fill="#B91B28"/>
<path transform="translate(0,1438)" d="m0 0 5 2v3l-5-2z" fill="#CE101E"/>
<path transform="translate(274,1473)" d="m0 0 2 1-2 2-4-1z" fill="#D8444F"/>
<path transform="translate(302,483)" d="m0 0 2 3v2h-2l-1-4z" fill="#DE5F68"/>
<path transform="translate(378,1523)" d="m0 0 3 1v2l-3-1z" fill="#CE101E"/>
<path transform="translate(1984,1420)" d="m0 0 2 2-4 1z" fill="#CE101E"/>
<path transform="translate(11,1109)" d="m0 0 4 2h-3z" fill="#BF0F1D"/>
<path transform="translate(507,477)" d="m0 0 3 1-3 1z" fill="#D73F4A"/>
<path transform="translate(1975,939)" d="m0 0 2 1-2 1z" fill="#DE5F68"/>
<path transform="translate(511,478)" d="m0 0 2 1-2 1z" fill="#DE5F68"/>
<path transform="translate(305,1470)" d="m0 0 2 1z" fill="#E6878E"/>
<path transform="translate(202,539)" d="m0 0 2 1z" fill="#CE101E"/>
<path transform="translate(313,492)" d="m0 0 2 1z" fill="#E6878E"/>
<path transform="translate(1223,1536)" d="m0 0" fill="#FEFEFE"/>
<path transform="translate(38,1469)" d="m0 0" fill="#CE101E"/>
<path transform="translate(10,1108)" d="m0 0" fill="#CE101E"/>
<path transform="translate(1960,503)" d="m0 0" fill="#CE101E"/>
<path transform="translate(311,496)" d="m0 0" fill="#CE101E"/>
</svg>
